<svg xmlns="http://www.w3.org/2000/svg" width="346.667" height="346.667" preserveAspectRatio="xMidYMid meet" version="1.0" viewBox="0 0 260 260"><metadata>Created by potrace 1.14, written by Peter Selinger 2001-2017</metadata><g fill="#000" stroke="none"><path d="M332 2482 l-72 -3 2 -957 c3 -953 3 -957 24 -1003 37 -79 121 -143 203 -155 14 -2 136 -4 271 -5 284 -1 289 -2 387 -93 41 -38 71 -77 89 -114 14 -31 33 -72 42 -90 l15 -33 30 53 c16 29 39 70 51 92 27 50 122 138 178 164 40 19 61 21 283 21 132 0 256 3 275 6 89 16 167 75 204 155 21 45 21 54 24 1003 l2 957 -87 0 c-523 3 -1865 4 -1921 2z m1878 -552 l0 -420 -420 0 -420 0 0 88 c-1 103 -1 636 0 705 l0 47 420 0 420 0 0 -420z m-985 -559 c9 -1 10 -205 5 -943 l0 -58 -52 40 c-99 75 -124 80 -416 80 -283 0 -303 4 -346 63 -20 27 -21 42 -24 414 -2 213 -1 391 1 397 3 8 126 11 413 10 225 -1 414 -2 419 -3z" transform="translate(0.000000,260.000000) scale(0.100000,-0.100000)"/></g></svg>